HIERARCHY
ROOT hip
{
  OFFSET -81.569 83.7456 8.46964
  CHANNELS 6 Xposition Yposition Zposition Zrotation Xrotation Yrotation
  JOINT abdomen
  {
    OFFSET 0 20.6881 -0.73152
    CHANNELS 3 Zrotation Xrotation Yrotation
    JOINT chest
    {
      OFFSET 0 11.7043 -0.48768
      CHANNELS 3 Zrotation Xrotation Yrotation
      JOINT neck
      {
        OFFSET 0 22.1894 -2.19456
        CHANNELS 3 Zrotation Xrotation Yrotation
        JOINT head
        {
          OFFSET -0.24384 7.07133 1.2192
          CHANNELS 3 Zrotation Xrotation Yrotation
          JOINT leftEye
          {
            OFFSET 4.14528 8.04674 8.04672
            CHANNELS 3 Zrotation Xrotation Yrotation
            End Site
            {
              OFFSET 1 0 0
            }
          }
          JOINT rightEye
          {
            OFFSET -3.6576 8.04674 8.04672
            CHANNELS 3 Zrotation Xrotation Yrotation
            End Site
            {
              OFFSET 1 0 0
            }
          }
        }
      }
      JOINT rCollar
      {
        OFFSET -2.68224 19.2634 -4.8768
        CHANNELS 3 Zrotation Xrotation Yrotation
        JOINT rShldr
        {
          OFFSET -8.77824 -1.95073 1.46304
          CHANNELS 3 Zrotation Xrotation Yrotation
          JOINT rForeArm
          {
            OFFSET -28.1742 -1.7115 0.48768
            CHANNELS 3 Zrotation Xrotation Yrotation
            JOINT rHand
            {
              OFFSET -22.5879 0.773209 7.07136
              CHANNELS 3 Zrotation Xrotation Yrotation
              JOINT rThumb1
              {
                OFFSET -1.2192 -0.487915 3.41376
                CHANNELS 3 Zrotation Xrotation Yrotation
                JOINT rThumb2
                {
                  OFFSET -3.37035 -0.52449 3.41376
                  CHANNELS 3 Zrotation Xrotation Yrotation
                  End Site
                  {
                    OFFSET -1.78271 -1.18214 1.43049
                  }
                }
              }
              JOINT rIndex1
              {
                OFFSET -7.75947 0.938293 5.60832
                CHANNELS 3 Zrotation Xrotation Yrotation
                JOINT rIndex2
                {
                  OFFSET -2.54057 -0.884171 1.56538
                  CHANNELS 3 Zrotation Xrotation Yrotation
                  End Site
                  {
                    OFFSET -1.62519 -0.234802 1.16502
                  }
                }
              }
              JOINT rMid1
              {
                OFFSET -8.24714 1.18213 3.41376
                CHANNELS 3 Zrotation Xrotation Yrotation
                JOINT rMid2
                {
                  OFFSET -3.10165 -0.590103 1.0647
                  CHANNELS 3 Zrotation Xrotation Yrotation
                  End Site
                  {
                    OFFSET -2.48547 -0.328903 0.83742
                  }
                }
              }
              JOINT rRing1
              {
                OFFSET -8.82822 0.546677 1.51678
                CHANNELS 3 Zrotation Xrotation Yrotation
                JOINT rRing2
                {
                  OFFSET -2.60934 -0.819778 -0.0198488
                  CHANNELS 3 Zrotation Xrotation Yrotation
                  End Site
                  {
                    OFFSET -2.33842 -0.294052 0.168128
                  }
                }
              }
              JOINT rPinky1
              {
                OFFSET -8.27202 -0.0477905 -0.4584
                CHANNELS 3 Zrotation Xrotation Yrotation
                JOINT rPinky2
                {
                  OFFSET -1.82734 -0.647385 -0.700984
                  CHANNELS 3 Zrotation Xrotation Yrotation
                  End Site
                  {
                    OFFSET -1.69225 -0.51767 -0.607171
                  }
                }
              }
            }
          }
        }
      }
      JOINT lCollar
      {
        OFFSET 2.68224 19.2634 -4.8768
        CHANNELS 3 Zrotation Xrotation Yrotation
        JOINT lShldr
        {
          OFFSET 8.77824 -1.95073 1.46304
          CHANNELS 3 Zrotation Xrotation Yrotation
          JOINT lForeArm
          {
            OFFSET 28.1742 -1.7115 0.48768
            CHANNELS 3 Zrotation Xrotation Yrotation
            JOINT lHand
            {
              OFFSET 22.5879 0.773209 7.07136
              CHANNELS 3 Zrotation Xrotation Yrotation
              JOINT lThumb1
              {
                OFFSET 1.2192 -0.487915 3.41376
                CHANNELS 3 Zrotation Xrotation Yrotation
                JOINT lThumb2
                {
                  OFFSET 3.37035 -0.52449 3.41376
                  CHANNELS 3 Zrotation Xrotation Yrotation
                  End Site
                  {
                    OFFSET 1.78271 -1.18214 1.43049
                  }
                }
              }
              JOINT lIndex1
              {
                OFFSET 7.75947 0.938293 5.60832
                CHANNELS 3 Zrotation Xrotation Yrotation
                JOINT lIndex2
                {
                  OFFSET 2.54057 -0.884171 1.56538
                  CHANNELS 3 Zrotation Xrotation Yrotation
                  End Site
                  {
                    OFFSET 1.62519 -0.234802 1.16502
                  }
                }
              }
              JOINT lMid1
              {
                OFFSET 8.24714 1.18213 3.41376
                CHANNELS 3 Zrotation Xrotation Yrotation
                JOINT lMid2
                {
                  OFFSET 3.10165 -0.590103 1.0647
                  CHANNELS 3 Zrotation Xrotation Yrotation
                  End Site
                  {
                    OFFSET 2.48547 -0.328903 0.83742
                  }
                }
              }
              JOINT lRing1
              {
                OFFSET 8.82822 0.546677 1.51678
                CHANNELS 3 Zrotation Xrotation Yrotation
                JOINT lRing2
                {
                  OFFSET 2.60934 -0.819778 -0.0198488
                  CHANNELS 3 Zrotation Xrotation Yrotation
                  End Site
                  {
                    OFFSET 2.33842 -0.294052 0.168128
                  }
                }
              }
              JOINT lPinky1
              {
                OFFSET 8.27202 -0.0477905 -0.4584
                CHANNELS 3 Zrotation Xrotation Yrotation
                JOINT lPinky2
                {
                  OFFSET 1.82734 -0.647385 -0.700984
                  CHANNELS 3 Zrotation Xrotation Yrotation
                  End Site
                  {
                    OFFSET 1.69225 -0.51767 -0.607171
                  }
                }
              }
            }
          }
        }
      }
    }
  }
  JOINT rButtock
  {
    OFFSET -8.77824 4.35084 1.2192
    CHANNELS 3 Zrotation Xrotation Yrotation
    JOINT rThigh
    {
      OFFSET 0 -1.70687 -2.19456
      CHANNELS 3 Zrotation Xrotation Yrotation
      JOINT rShin
      {
        OFFSET 0 -36.8199 0.73152
        CHANNELS 3 Zrotation Xrotation Yrotation
        JOINT rFoot
        {
          OFFSET 0.73152 -45.1104 -5.12064
          CHANNELS 3 Zrotation Xrotation Yrotation
          End Site
          {
            OFFSET -1.1221 -3.69964 12.103
          }
        }
      }
    }
  }
  JOINT lButtock
  {
    OFFSET 8.77824 4.35084 1.2192
    CHANNELS 3 Zrotation Xrotation Yrotation
    JOINT lThigh
    {
      OFFSET 0 -1.70687 -2.19456
      CHANNELS 3 Zrotation Xrotation Yrotation
      JOINT lShin
      {
        OFFSET 0 -36.8199 0.73152
        CHANNELS 3 Zrotation Xrotation Yrotation
        JOINT lFoot
        {
          OFFSET -0.73152 -45.1104 -5.12064
          CHANNELS 3 Zrotation Xrotation Yrotation
          End Site
          {
            OFFSET 1.1221 -3.69964 12.103
          }
        }
      }
    }
  }
}
MOTION
Frames:	8
Frame Time:	0.00833333
-58.5219 79.5827 6.91078 -11.4918 5.75352 80.1227 10.2486 37.7711 -0.503867 -2.11074 -6.24467 0.0988897 5.52142 20.4377 11.1722 -12.0199 -45.8434 18.6176 -0 0 0 -0 0 0 3.40114e-013 2.47367e-012 -1.69373e-013 62.9992 23.9034 12.8828 -17.2562 -9.90112 32.4364 -0.648566 22.3077 3.30465 -2.52834e-010 1.77616e-010 -9.25374e-010 -4.5441e-010 3.04248e-010 -1.5912e-009 -2.52827e-010 1.77617e-010 -9.25387e-010 7.73091 5.47488 0.417314 -2.52832e-010 1.77614e-010 -9.25374e-010 2.90554 0.965183 0.102902 -2.52826e-010 1.77616e-010 -9.25377e-010 10.2786 0.731801 0.0259123 -2.52835e-010 1.77616e-010 -9.25373e-010 2.22167 -0.733487 -0.20892 3.40109e-013 2.47369e-012 -1.69745e-013 -65.8817 32.4391 -20.0119 24.484 -20.0266 -51.1795 0.191718 12.543 -1.79038 -9.42692e-010 8.73022e-011 -2.72764e-010 -1.62922e-009 1.53303e-010 -4.65172e-010 -9.42695e-010 8.72988e-011 -2.72755e-010 -7.73091 5.47488 -0.417314 -9.42678e-010 8.72964e-011 -2.72778e-010 -2.90554 0.965183 -0.102902 -9.42696e-010 8.73035e-011 -2.72764e-010 -10.2786 0.731801 -0.0259123 -9.42686e-010 8.73032e-011 -2.72774e-010 -2.22167 -0.733487 0.20892 -2.03217e-016 0 -3.88251e-019 6.48179 -36.3159 4.51892 -0.364244 43.957 1.02768 0.164651 -16.9602 1.95901 2.03217e-016 0 3.88251e-019 -1.45255 -52.4398 -7.78946 0.641062 50.5541 -0.956 -0.223331 4.11547 -12.7089 
-58.2482 78.7301 6.59039 -10.0978 7.05904 78.2464 13.5783 37.7396 -1.8774 -2.36482 -6.18242 0.00802212 6.01777 21.0061 11.6352 -12.4783 -46.0355 19.4623 -0 0 0 -0 0 0 3.54702e-013 2.73193e-012 -1.34338e-013 65.0305 22.7109 9.80434 -16.1091 -8.80142 29.9163 -0.79387 24.5799 3.68272 9.74441e-011 5.32284e-010 -1.6304e-009 1.32676e-010 9.08314e-010 -2.81677e-009 9.74547e-011 5.32286e-010 -1.63041e-009 7.73091 5.47488 0.417314 9.74458e-011 5.3228e-010 -1.6304e-009 2.90554 0.965183 0.102902 9.74505e-011 5.32282e-010 -1.6304e-009 10.2786 0.731801 0.0259123 9.74413e-011 5.32283e-010 -1.6304e-009 2.22167 -0.733487 -0.20892 3.547e-013 2.73195e-012 -1.34633e-013 -61.0538 34.3893 -26.6241 25.0578 -21.2247 -53.1897 0.25226 14.3932 -2.06452 -5.25174e-010 8.32292e-011 -9.0453e-011 -9.05525e-010 1.44834e-010 -1.5328e-010 -5.25176e-010 8.32249e-011 -9.04427e-011 -7.73091 5.47488 -0.417314 -5.25165e-010 8.32235e-011 -9.04622e-011 -2.90554 0.965183 -0.102902 -5.25176e-010 8.32281e-011 -9.04542e-011 -10.2786 0.731801 -0.0259123 -5.25168e-010 8.32295e-011 -9.04641e-011 -2.22167 -0.733487 0.20892 -2.03217e-016 0 -3.88251e-019 8.01487 -36.7916 3.69499 -0.418558 46.2471 1.11682 -0.5445 -17.4254 0.11155 2.03217e-016 0 3.88251e-019 -0.131712 -53.6052 -7.46849 0.795731 54.333 -1.10461 -0.869147 2.11004 -13.7471 
-57.9619 77.9149 5.82837 -8.83751 8.95252 76.7822 16.7222 37.5073 -3.03179 -2.61629 -6.10234 -0.0416723 6.46272 21.579 12.0686 -12.9101 -46.2867 20.2534 -0 0 0 -0 0 0 3.44599e-013 2.7813e-012 -9.00918e-014 66.9415 21.2442 6.83749 -15.0203 -7.83278 27.5877 -1.01467 27.4232 4.17998 4.69362e-010 8.62672e-010 -2.23986e-009 7.59077e-010 1.47057e-009 -3.8778e-009 4.69375e-010 8.62676e-010 -2.23987e-009 7.73091 5.47488 0.417314 4.69363e-010 8.62666e-010 -2.23986e-009 2.90554 0.965183 0.102902 4.69367e-010 8.62668e-010 -2.23986e-009 10.2786 0.731801 0.0259123 4.69357e-010 8.62669e-010 -2.23985e-009 2.22167 -0.733487 -0.20892 3.44599e-013 2.78132e-012 -9.02995e-014 -55.8985 35.531 -33.1502 25.5933 -22.4438 -55.1915 0.321818 16.0817 -2.32033 -5.93642e-011 9.99567e-011 1.0908e-010 -9.84939e-011 1.7215e-010 1.8795e-010 -5.93663e-011 9.99523e-011 1.09093e-010 -7.73091 5.47488 -0.417314 -5.93612e-011 9.99519e-011 1.09077e-010 -2.90554 0.965183 -0.102902 -5.9365e-011 9.99538e-011 1.09079e-010 -10.2786 0.731801 -0.0259123 -5.93596e-011 9.99569e-011 1.09068e-010 -2.22167 -0.733487 0.20892 -2.03217e-016 0 -3.88251e-019 9.71405 -37.3074 3.02477 -0.470507 48.1769 1.19576 -1.17506 -17.7383 -1.4636 2.03217e-016 0 3.88251e-019 1.79248 -54.6987 -6.57259 0.990713 58.1495 -1.28886 -1.56739 0.0254239 -14.4059 
-57.5305 77.3038 5.56612 -7.93382 10.2181 75.8834 18.8196 37.3082 -3.97639 -2.63892 -6.06075 -0.114966 6.76899 22.0983 12.5789 -13.3686 -46.5201 21.1779 -0 0 0 -0 0 0 3.16447e-013 2.6641e-012 -4.76089e-014 68.5656 19.704 4.2164 -14.0342 -6.98214 25.623 -1.24875 30.0109 4.65622 6.75625e-010 1.0313e-009 -2.52794e-009 1.1071e-009 1.75692e-009 -4.37986e-009 6.7564e-010 1.0313e-009 -2.52795e-009 7.73091 5.47488 0.417314 6.75626e-010 1.03129e-009 -2.52794e-009 2.90554 0.965183 0.102902 6.75629e-010 1.03129e-009 -2.52794e-009 10.2786 0.731801 0.0259123 6.75619e-010 1.0313e-009 -2.52793e-009 2.22167 -0.733487 -0.20892 3.16455e-013 2.66412e-012 -4.7758e-014 -51.1155 35.6262 -38.9105 26.1047 -23.7063 -57.2042 0.377374 17.2049 -2.49417 2.36384e-010 1.12258e-010 2.07964e-010 4.13549e-010 1.9249e-010 3.56344e-010 2.36382e-010 1.12254e-010 2.07976e-010 -7.73091 5.47488 -0.417314 2.36383e-010 1.12254e-010 2.07964e-010 -2.90554 0.965183 -0.102902 2.36384e-010 1.12254e-010 2.07961e-010 -10.2786 0.731801 -0.0259123 2.36388e-010 1.12258e-010 2.07951e-010 -2.22167 -0.733487 0.20892 -2.03217e-016 0 -3.88251e-019 10.783 -37.751 2.56768 -0.51509 49.5736 1.24898 -1.58056 -17.8913 -2.47034 2.03217e-016 0 3.88251e-019 3.59257 -55.2539 -5.17754 1.20535 61.4694 -1.49283 -2.10958 -1.67229 -14.5774 
-57.1226 77.01 5.6928 -7.54151 10.3723 75.5716 19.4415 37.2031 -4.60696 -2.31329 -6.08174 -0.214315 6.84482 22.5775 13.2291 -13.8402 -46.79 22.36 -0 0 0 -0 0 0 2.56465e-013 2.27161e-012 -3.03457e-015 69.9031 17.8577 2.01906 -13.1732 -6.27831 23.9748 -1.50203 32.6206 5.15474 6.15481e-010 9.31286e-010 -2.30923e-009 1.00689e-009 1.58441e-009 -4.00018e-009 6.15493e-010 9.31292e-010 -2.30925e-009 7.73091 5.47488 0.417314 6.15481e-010 9.31283e-010 -2.30923e-009 2.90554 0.965183 0.102902 6.15485e-010 9.31284e-010 -2.30923e-009 10.2786 0.731801 0.0259123 6.15476e-010 9.31285e-010 -2.30922e-009 2.22167 -0.733487 -0.20892 2.56497e-013 2.27163e-012 -3.16386e-015 -47.2958 34.8649 -43.5446 26.6376 -25.1602 -59.3716 0.398102 17.5703 -2.55167 2.91614e-010 1.31598e-010 1.17491e-010 5.07927e-010 2.25792e-010 1.9895e-010 2.91612e-010 1.31596e-010 1.17501e-010 -7.73091 5.47488 -0.417314 2.91612e-010 1.31597e-010 1.17491e-010 -2.90554 0.965183 -0.102902 2.91613e-010 1.31596e-010 1.17487e-010 -10.2786 0.731801 -0.0259123 2.91616e-010 1.316e-010 1.17477e-010 -2.22167 -0.733487 0.20892 -2.03217e-016 0 -3.88251e-019 11.0001 -38.1145 2.43825 -0.545794 50.3531 1.26583 -1.65641 -17.908 -2.68189 2.03217e-016 0 3.88251e-019 5.20369 -55.1482 -3.01752 1.43915 64.3184 -1.7171 -2.40606 -3.04223 -13.9941 
-56.7303 76.8679 5.59748 -7.536 10.1061 75.7859 19.1136 37.0772 -4.9545 -1.78002 -6.13224 -0.310141 6.75744 23.036 13.9516 -14.2942 -47.1043 23.683 -0 0 0 -0 0 0 1.66295e-013 1.62125e-012 4.72238e-014 71.0224 15.7259 0.110708 -12.4626 -5.7559 22.5679 -1.83106 35.5244 5.74881 4.05755e-010 6.59364e-010 -1.74589e-009 6.56261e-010 1.11806e-009 -3.02165e-009 4.05763e-010 6.59369e-010 -1.74591e-009 7.73091 5.47488 0.417314 4.05755e-010 6.59364e-010 -1.74589e-009 2.90554 0.965183 0.102902 4.05759e-010 6.59365e-010 -1.74589e-009 10.2786 0.731801 0.0259123 4.05752e-010 6.59365e-010 -1.74588e-009 2.22167 -0.733487 -0.20892 1.6636e-013 1.62127e-012 4.70964e-014 -44.3088 33.591 -47.2779 27.1309 -26.7125 -61.6981 0.390919 17.4221 -2.52867 2.26856e-010 1.65368e-010 -8.03815e-011 3.93675e-010 2.84414e-010 -1.43393e-010 2.26855e-010 1.65368e-010 -8.0377e-011 -7.73091 5.47488 -0.417314 2.26855e-010 1.6537e-010 -8.03838e-011 -2.90554 0.965183 -0.102902 2.26854e-010 1.65369e-010 -8.03877e-011 -10.2786 0.731801 -0.0259123 2.26858e-010 1.65372e-010 -8.03983e-011 -2.22167 -0.733487 0.20892 -2.03217e-016 0 -3.88251e-019 10.8055 -38.4532 2.57935 -0.560359 50.6204 1.2508 -1.48766 -17.7928 -2.30099 2.03217e-016 0 3.88251e-019 6.87409 -54.5792 -0.224475 1.70769 66.9254 -1.97528 -2.4989 -4.29024 -12.7861 
-56.4825 77.0251 5.56448 -7.76175 9.67897 76.2344 18.4222 36.8959 -5.23986 -1.20281 -6.18282 -0.419154 6.66091 23.4253 14.655 -14.7768 -47.3202 24.9579 -0 0 0 -0 0 0 7.57125e-014 9.44587e-013 9.17981e-014 71.9662 13.9 -1.63392 -11.9533 -5.41054 21.5364 -2.15012 37.8955 6.27508 1.85524e-010 3.8346e-010 -1.13349e-009 2.89034e-010 6.45763e-010 -1.95832e-009 1.85527e-010 3.83464e-010 -1.13351e-009 7.73091 5.47488 0.417314 1.85523e-010 3.83464e-010 -1.13349e-009 2.90554 0.965183 0.102902 1.85529e-010 3.83464e-010 -1.13349e-009 10.2786 0.731801 0.0259123 1.85523e-010 3.83464e-010 -1.13348e-009 2.22167 -0.733487 -0.20892 7.58024e-014 9.44605e-013 9.16619e-014 -41.8211 31.9226 -50.3056 27.4927 -28.0823 -63.9382 0.370102 17.0112 -2.46476 1.10241e-010 1.82226e-010 -2.47531e-010 1.90041e-010 3.1423e-010 -4.3217e-010 1.1024e-010 1.82229e-010 -2.47531e-010 -7.73091 5.47488 -0.417314 1.10241e-010 1.82231e-010 -2.47536e-010 -2.90554 0.965183 -0.102902 1.10238e-010 1.82231e-010 -2.47539e-010 -10.2786 0.731801 -0.0259123 1.10242e-010 1.82232e-010 -2.4755e-010 -2.22167 -0.733487 0.20892 -2.03217e-016 0 -3.88251e-019 10.3956 -38.7491 2.79294 -0.560432 50.486 1.21123 -1.21835 -17.5106 -1.67759 2.03217e-016 0 3.88251e-019 8.27581 -53.5969 2.47246 1.97925 69.061 -2.23686 -2.41543 -5.16179 -11.4267 
-56.1115 77.3334 5.65513 -8.06709 9.34246 76.6192 17.9498 36.6219 -5.68169 -0.745208 -6.20401 -0.558046 6.71482 23.6996 15.2459 -15.357 -47.3071 25.9792 -0 0 0 -0 0 0 1.4491e-014 4.73199e-013 1.19321e-013 72.8334 12.9636 -3.35127 -11.6925 -5.23535 21.0164 -2.30351 38.913 6.5145 9.38653e-011 2.71502e-010 -7.67582e-010 1.39032e-010 4.55392e-010 -1.32421e-009 9.38669e-011 2.71506e-010 -7.67608e-010 7.73091 5.47488 0.417314 9.38637e-011 2.71508e-010 -7.67582e-010 2.90554 0.965183 0.102902 9.38724e-011 2.71509e-010 -7.67587e-010 10.2786 0.731801 0.0259123 9.38653e-011 2.71507e-010 -7.67573e-010 2.22167 -0.733487 -0.20892 1.45822e-014 4.73215e-013 1.19171e-013 -39.4636 29.9257 -52.8437 27.7041 -29.0703 -65.7672 0.349861 16.5888 -2.39951 9.89789e-012 1.50831e-010 -2.45835e-010 1.62705e-011 2.61114e-010 -4.28869e-010 9.89709e-012 1.50836e-010 -2.45838e-010 -7.73091 5.47488 -0.417314 9.89784e-012 1.50838e-010 -2.45841e-010 -2.90554 0.965183 -0.102902 9.89328e-012 1.50838e-010 -2.45843e-010 -10.2786 0.731801 -0.0259123 9.89808e-012 1.50838e-010 -2.45854e-010 -2.22167 -0.733487 0.20892 -2.03217e-016 0 -3.88251e-019 9.9609 -38.9849 2.87713 -0.549034 50.0605 1.15574 -0.992541 -17.0284 -1.16168 2.03217e-016 0 3.88251e-019 9.17283 -52.3085 4.42119 2.19472 70.4965 -2.44431 -2.24264 -5.39208 -10.3919 
